<?xml version="1.0" encoding="us-ascii" standalone="no"?><svg xmlns="http://www.w3.org/2000/svg" xmlns:xlink="http://www.w3.org/1999/xlink" contentStyleType="text/css" height="645px" preserveAspectRatio="none" style="width:796px;height:645px;background:#FFFFFF;" version="1.1" viewBox="0 0 796 645" width="796px" zoomAndPan="magnify"><defs/><g><!--cluster bo4e--><g id="cluster_bo4e"><path d="M521.5,6 L562.5,6 A3.75,3.75 0 0 1 565,8.5 L572,28.2969 L786.5,28.2969 A2.5,2.5 0 0 1 789,30.7969 L789,635.5 A2.5,2.5 0 0 1 786.5,638 L521.5,638 A2.5,2.5 0 0 1 519,635.5 L519,8.5 A2.5,2.5 0 0 1 521.5,6 " fill="none" style="stroke:#000000;stroke-width:1.5;"/><line style="stroke:#000000;stroke-width:1.5;" x1="519" x2="572" y1="28.2969" y2="28.2969"/><text fill="#000000" font-family="sans-serif" font-size="14" font-weight="bold" lengthAdjust="spacing" textLength="40" x="523" y="20.9951">bo4e</text></g><!--cluster bo--><g id="cluster_bo"><path d="M600,49 L666,49 A3.75,3.75 0 0 1 668.5,51.5 L675.5,71.2969 L708,71.2969 A2.5,2.5 0 0 1 710.5,73.7969 L710.5,129.5 A2.5,2.5 0 0 1 708,132 L600,132 A2.5,2.5 0 0 1 597.5,129.5 L597.5,51.5 A2.5,2.5 0 0 1 600,49 " fill="#B6D7A8" style="stroke:#000000;stroke-width:1.5;"/><line style="stroke:#000000;stroke-width:1.5;" x1="597.5" x2="675.5" y1="71.2969" y2="71.2969"/><text fill="#000000" font-family="sans-serif" font-size="14" font-weight="bold" lengthAdjust="spacing" textLength="65" x="601.5" y="63.9951">bo4e.bo</text></g><!--cluster com--><g id="cluster_com"><path d="M583.5,156 L662.5,156 A3.75,3.75 0 0 1 665,158.5 L672,178.2969 L724.5,178.2969 A2.5,2.5 0 0 1 727,180.7969 L727,303.5 A2.5,2.5 0 0 1 724.5,306 L583.5,306 A2.5,2.5 0 0 1 581,303.5 L581,158.5 A2.5,2.5 0 0 1 583.5,156 " fill="#E0A86C" style="stroke:#000000;stroke-width:1.5;"/><line style="stroke:#000000;stroke-width:1.5;" x1="581" x2="672" y1="178.2969" y2="178.2969"/><text fill="#000000" font-family="sans-serif" font-size="14" font-weight="bold" lengthAdjust="spacing" textLength="78" x="585" y="170.9951">bo4e.com</text></g><!--cluster enum--><g id="cluster_enum"><path d="M545.5,330 L635.5,330 A3.75,3.75 0 0 1 638,332.5 L645,352.2969 L762.5,352.2969 A2.5,2.5 0 0 1 765,354.7969 L765,611.5 A2.5,2.5 0 0 1 762.5,614 L545.5,614 A2.5,2.5 0 0 1 543,611.5 L543,332.5 A2.5,2.5 0 0 1 545.5,330 " fill="#D1C358" style="stroke:#000000;stroke-width:1.5;"/><line style="stroke:#000000;stroke-width:1.5;" x1="543" x2="645" y1="352.2969" y2="352.2969"/><text fill="#000000" font-family="sans-serif" font-size="14" font-weight="bold" lengthAdjust="spacing" textLength="89" x="547" y="344.9951">bo4e.enum</text></g><!--class Person--><g id="elem_Person"><rect codeLine="19" fill="#F1F1F1" height="32" id="Person" rx="2.5" ry="2.5" style="stroke:#181818;stroke-width:0.5;" width="81" x="613.5" y="84"/><ellipse cx="628.5" cy="100" fill="#ADD1B2" rx="11" ry="11" style="stroke:#181818;stroke-width:1.0;"/><path d="M631.4688,105.6406 Q630.8906,105.9375 630.25,106.0781 Q629.6094,106.2344 628.9063,106.2344 Q626.4063,106.2344 625.0781,104.5938 Q623.7656,102.9375 623.7656,99.8125 Q623.7656,96.6875 625.0781,95.0313 Q626.4063,93.375 628.9063,93.375 Q629.6094,93.375 630.25,93.5313 Q630.9063,93.6875 631.4688,93.9844 L631.4688,96.7031 Q630.8438,96.125 630.25,95.8594 Q629.6563,95.5781 629.0313,95.5781 Q627.6875,95.5781 627,96.6563 Q626.3125,97.7188 626.3125,99.8125 Q626.3125,101.9063 627,102.9844 Q627.6875,104.0469 629.0313,104.0469 Q629.6563,104.0469 630.25,103.7813 Q630.8438,103.5 631.4688,102.9219 L631.4688,105.6406 Z " fill="#000000"/><text fill="#000000" font-family="sans-serif" font-size="14" lengthAdjust="spacing" textLength="49" x="642.5" y="104.8467">Person</text></g><!--class Adresse--><g id="elem_Adresse"><rect codeLine="31" fill="#F1F1F1" height="32" id="Adresse" rx="2.5" ry="2.5" style="stroke:#181818;stroke-width:0.5;" width="89" x="609.5" y="191"/><ellipse cx="624.5" cy="207" fill="#ADD1B2" rx="11" ry="11" style="stroke:#181818;stroke-width:1.0;"/><path d="M627.4688,212.6406 Q626.8906,212.9375 626.25,213.0781 Q625.6094,213.2344 624.9063,213.2344 Q622.4063,213.2344 621.0781,211.5938 Q619.7656,209.9375 619.7656,206.8125 Q619.7656,203.6875 621.0781,202.0313 Q622.4063,200.375 624.9063,200.375 Q625.6094,200.375 626.25,200.5313 Q626.9063,200.6875 627.4688,200.9844 L627.4688,203.7031 Q626.8438,203.125 626.25,202.8594 Q625.6563,202.5781 625.0313,202.5781 Q623.6875,202.5781 623,203.6563 Q622.3125,204.7188 622.3125,206.8125 Q622.3125,208.9063 623,209.9844 Q623.6875,211.0469 625.0313,211.0469 Q625.6563,211.0469 626.25,210.7813 Q626.8438,210.5 627.4688,209.9219 L627.4688,212.6406 Z " fill="#000000"/><text fill="#000000" font-family="sans-serif" font-size="14" lengthAdjust="spacing" textLength="57" x="638.5" y="211.8467">Adresse</text></g><!--class Kontaktweg--><g id="elem_Kontaktweg"><rect codeLine="44" fill="#F1F1F1" height="32" id="Kontaktweg" rx="2.5" ry="2.5" style="stroke:#181818;stroke-width:0.5;" width="114" x="597" y="258"/><ellipse cx="612" cy="274" fill="#ADD1B2" rx="11" ry="11" style="stroke:#181818;stroke-width:1.0;"/><path d="M614.9688,279.6406 Q614.3906,279.9375 613.75,280.0781 Q613.1094,280.2344 612.4063,280.2344 Q609.9063,280.2344 608.5781,278.5938 Q607.2656,276.9375 607.2656,273.8125 Q607.2656,270.6875 608.5781,269.0313 Q609.9063,267.375 612.4063,267.375 Q613.1094,267.375 613.75,267.5313 Q614.4063,267.6875 614.9688,267.9844 L614.9688,270.7031 Q614.3438,270.125 613.75,269.8594 Q613.1563,269.5781 612.5313,269.5781 Q611.1875,269.5781 610.5,270.6563 Q609.8125,271.7188 609.8125,273.8125 Q609.8125,275.9063 610.5,276.9844 Q611.1875,278.0469 612.5313,278.0469 Q613.1563,278.0469 613.75,277.7813 Q614.3438,277.5 614.9688,276.9219 L614.9688,279.6406 Z " fill="#000000"/><text fill="#000000" font-family="sans-serif" font-size="14" lengthAdjust="spacing" textLength="82" x="626" y="278.8467">Kontaktweg</text></g><!--class Anrede--><g id="elem_Anrede"><rect codeLine="54" fill="#F1F1F1" height="32" id="Anrede" rx="2.5" ry="2.5" style="stroke:#181818;stroke-width:0.5;" width="82" x="613" y="365"/><ellipse cx="628" cy="381" fill="#ADD1B2" rx="11" ry="11" style="stroke:#181818;stroke-width:1.0;"/><path d="M630.9688,386.6406 Q630.3906,386.9375 629.75,387.0781 Q629.1094,387.2344 628.4063,387.2344 Q625.9063,387.2344 624.5781,385.5938 Q623.2656,383.9375 623.2656,380.8125 Q623.2656,377.6875 624.5781,376.0313 Q625.9063,374.375 628.4063,374.375 Q629.1094,374.375 629.75,374.5313 Q630.4063,374.6875 630.9688,374.9844 L630.9688,377.7031 Q630.3438,377.125 629.75,376.8594 Q629.1563,376.5781 628.5313,376.5781 Q627.1875,376.5781 626.5,377.6563 Q625.8125,378.7188 625.8125,380.8125 Q625.8125,382.9063 626.5,383.9844 Q627.1875,385.0469 628.5313,385.0469 Q629.1563,385.0469 629.75,384.7813 Q630.3438,384.5 630.9688,383.9219 L630.9688,386.6406 Z " fill="#000000"/><text fill="#000000" font-family="sans-serif" font-size="14" lengthAdjust="spacing" textLength="50" x="642" y="385.8467">Anrede</text></g><!--class Geschaeftspartnerrolle--><g id="elem_Geschaeftspartnerrolle"><rect codeLine="56" fill="#F1F1F1" height="32" id="Geschaeftspartnerrolle" rx="2.5" ry="2.5" style="stroke:#181818;stroke-width:0.5;" width="190" x="559" y="432"/><ellipse cx="574" cy="448" fill="#ADD1B2" rx="11" ry="11" style="stroke:#181818;stroke-width:1.0;"/><path d="M576.9688,453.6406 Q576.3906,453.9375 575.75,454.0781 Q575.1094,454.2344 574.4063,454.2344 Q571.9063,454.2344 570.5781,452.5938 Q569.2656,450.9375 569.2656,447.8125 Q569.2656,444.6875 570.5781,443.0313 Q571.9063,441.375 574.4063,441.375 Q575.1094,441.375 575.75,441.5313 Q576.4063,441.6875 576.9688,441.9844 L576.9688,444.7031 Q576.3438,444.125 575.75,443.8594 Q575.1563,443.5781 574.5313,443.5781 Q573.1875,443.5781 572.5,444.6563 Q571.8125,445.7188 571.8125,447.8125 Q571.8125,449.9063 572.5,450.9844 Q573.1875,452.0469 574.5313,452.0469 Q575.1563,452.0469 575.75,451.7813 Q576.3438,451.5 576.9688,450.9219 L576.9688,453.6406 Z " fill="#000000"/><text fill="#000000" font-family="sans-serif" font-size="14" lengthAdjust="spacing" textLength="158" x="588" y="452.8467">Geschaeftspartnerrolle</text></g><!--class Organisationstyp--><g id="elem_Organisationstyp"><rect codeLine="58" fill="#F1F1F1" height="32" id="Organisationstyp" rx="2.5" ry="2.5" style="stroke:#181818;stroke-width:0.5;" width="148" x="580" y="499"/><ellipse cx="595" cy="515" fill="#ADD1B2" rx="11" ry="11" style="stroke:#181818;stroke-width:1.0;"/><path d="M597.9688,520.6406 Q597.3906,520.9375 596.75,521.0781 Q596.1094,521.2344 595.4063,521.2344 Q592.9063,521.2344 591.5781,519.5938 Q590.2656,517.9375 590.2656,514.8125 Q590.2656,511.6875 591.5781,510.0313 Q592.9063,508.375 595.4063,508.375 Q596.1094,508.375 596.75,508.5313 Q597.4063,508.6875 597.9688,508.9844 L597.9688,511.7031 Q597.3438,511.125 596.75,510.8594 Q596.1563,510.5781 595.5313,510.5781 Q594.1875,510.5781 593.5,511.6563 Q592.8125,512.7188 592.8125,514.8125 Q592.8125,516.9063 593.5,517.9844 Q594.1875,519.0469 595.5313,519.0469 Q596.1563,519.0469 596.75,518.7813 Q597.3438,518.5 597.9688,517.9219 L597.9688,520.6406 Z " fill="#000000"/><text fill="#000000" font-family="sans-serif" font-size="14" lengthAdjust="spacing" textLength="116" x="609" y="519.8467">Organisationstyp</text></g><!--class Titel--><g id="elem_Titel"><rect codeLine="60" fill="#F1F1F1" height="32" id="Titel" rx="2.5" ry="2.5" style="stroke:#181818;stroke-width:0.5;" width="61" x="623.5" y="566"/><ellipse cx="638.5" cy="582" fill="#ADD1B2" rx="11" ry="11" style="stroke:#181818;stroke-width:1.0;"/><path d="M641.4688,587.6406 Q640.8906,587.9375 640.25,588.0781 Q639.6094,588.2344 638.9063,588.2344 Q636.4063,588.2344 635.0781,586.5938 Q633.7656,584.9375 633.7656,581.8125 Q633.7656,578.6875 635.0781,577.0313 Q636.4063,575.375 638.9063,575.375 Q639.6094,575.375 640.25,575.5313 Q640.9063,575.6875 641.4688,575.9844 L641.4688,578.7031 Q640.8438,578.125 640.25,577.8594 Q639.6563,577.5781 639.0313,577.5781 Q637.6875,577.5781 637,578.6563 Q636.3125,579.7188 636.3125,581.8125 Q636.3125,583.9063 637,584.9844 Q637.6875,586.0469 639.0313,586.0469 Q639.6563,586.0469 640.25,585.7813 Q640.8438,585.5 641.4688,584.9219 L641.4688,587.6406 Z " fill="#000000"/><text fill="#000000" font-family="sans-serif" font-size="14" lengthAdjust="spacing" textLength="29" x="652.5" y="586.8467">Titel</text></g><!--class Geschaeftspartner--><g id="elem_Geschaeftspartner"><rect codeLine="3" fill="#F1F1F1" height="235.5625" id="Geschaeftspartner" rx="2.5" ry="2.5" style="stroke:#181818;stroke-width:0.5;" width="312" x="7" y="263"/><ellipse cx="94.25" cy="279" fill="#ADD1B2" rx="11" ry="11" style="stroke:#181818;stroke-width:1.0;"/><path d="M97.2188,284.6406 Q96.6406,284.9375 96,285.0781 Q95.3594,285.2344 94.6563,285.2344 Q92.1563,285.2344 90.8281,283.5938 Q89.5156,281.9375 89.5156,278.8125 Q89.5156,275.6875 90.8281,274.0313 Q92.1563,272.375 94.6563,272.375 Q95.3594,272.375 96,272.5313 Q96.6563,272.6875 97.2188,272.9844 L97.2188,275.7031 Q96.5938,275.125 96,274.8594 Q95.4063,274.5781 94.7813,274.5781 Q93.4375,274.5781 92.75,275.6563 Q92.0625,276.7188 92.0625,278.8125 Q92.0625,280.9063 92.75,281.9844 Q93.4375,283.0469 94.7813,283.0469 Q95.4063,283.0469 96,282.7813 Q96.5938,282.5 97.2188,281.9219 L97.2188,284.6406 Z " fill="#000000"/><text fill="#000000" font-family="sans-serif" font-size="14" lengthAdjust="spacing" textLength="129" x="114.75" y="283.8467">Geschaeftspartner</text><line style="stroke:#181818;stroke-width:0.5;" x1="8" x2="318" y1="295" y2="295"/><text fill="#000000" font-family="sans-serif" font-size="14" lengthAdjust="spacing" textLength="90" x="13" y="311.9951">_id : str [0..1]</text><text fill="#000000" font-family="sans-serif" font-size="14" lengthAdjust="spacing" textLength="300" x="13" y="328.292">_typ : Literal["GESCHAEFTSPARTNER"] [0..1]</text><text fill="#000000" font-family="sans-serif" font-size="14" lengthAdjust="spacing" textLength="128" x="13" y="344.5889">_version : str [0..1]</text><text fill="#000000" font-family="sans-serif" font-size="14" lengthAdjust="spacing" textLength="153" x="13" y="360.8857">amtsgericht : str [0..1]</text><text fill="#000000" font-family="sans-serif" font-size="14" lengthAdjust="spacing" textLength="156" x="13" y="377.1826">glaeubigerId : str [0..1]</text><text fill="#000000" font-family="sans-serif" font-size="14" lengthAdjust="spacing" textLength="237" x="13" y="393.4795">handelsregisternummer : str [0..1]</text><text fill="#000000" font-family="sans-serif" font-size="14" lengthAdjust="spacing" textLength="197" x="13" y="409.7764">individuelleAnrede : str [0..1]</text><text fill="#000000" font-family="sans-serif" font-size="14" lengthAdjust="spacing" textLength="144" x="13" y="426.0732">nachname : str [0..1]</text><text fill="#000000" font-family="sans-serif" font-size="14" lengthAdjust="spacing" textLength="203" x="13" y="442.3701">organisationsname : str [0..1]</text><text fill="#000000" font-family="sans-serif" font-size="14" lengthAdjust="spacing" textLength="179" x="13" y="458.667">umsatzsteuerId : str [0..1]</text><text fill="#000000" font-family="sans-serif" font-size="14" lengthAdjust="spacing" textLength="131" x="13" y="474.9639">vorname : str [0..1]</text><text fill="#000000" font-family="sans-serif" font-size="14" lengthAdjust="spacing" textLength="125" x="13" y="491.2607">website : str [0..1]</text></g><!--link Geschaeftspartner to Person--><g id="link_Geschaeftspartner_Person"><path codeLine="64" d="M286.23,262.87 C306.32,246.58 327.6,231.01 349,218 C436.8,164.62 541.3633,130.8872 601.5133,113.8672 " fill="none" id="Geschaeftspartner-to-Person" style="stroke:#181818;stroke-width:1.0;"/><polygon fill="#181818" points="613.06,110.6,606.1976,108.3847,601.5133,113.8672,608.3758,116.0825,613.06,110.6" style="stroke:#181818;stroke-width:1.0;"/><text fill="#000000" font-family="sans-serif" font-size="13" lengthAdjust="spacing" textLength="106" x="373" y="143.0669">ansprechpartner</text><text fill="#000000" font-family="sans-serif" font-size="13" lengthAdjust="spacing" textLength="23" x="582.3579" y="125.3351">0..*</text></g><!--link Geschaeftspartner to Adresse--><g id="link_Geschaeftspartner_Adresse"><path codeLine="65" d="M319.07,296.63 C329.09,292.13 339.13,287.88 349,284 C418.45,256.74 438.65,258.23 511,240 C543.89,231.72 569.545,225.7045 597.695,219.3445 " fill="none" id="Geschaeftspartner-to-Adresse" style="stroke:#181818;stroke-width:1.0;"/><polygon fill="#181818" points="609.4,216.7,602.666,214.1206,597.695,219.3445,604.429,221.9239,609.4,216.7" style="stroke:#181818;stroke-width:1.0;"/><text fill="#000000" font-family="sans-serif" font-size="13" lengthAdjust="spacing" textLength="51" x="400.5" y="239.0669">adresse</text><text fill="#000000" font-family="sans-serif" font-size="13" lengthAdjust="spacing" textLength="24" x="577.4406" y="231.195">0..1</text></g><!--link Geschaeftspartner to Kontaktweg--><g id="link_Geschaeftspartner_Kontaktweg"><path codeLine="66" d="M319.06,347.07 C413.89,326.32 517.8173,303.5746 585.1473,288.8446 " fill="none" id="Geschaeftspartner-to-Kontaktweg" style="stroke:#181818;stroke-width:1.0;"/><polygon fill="#181818" points="596.87,286.28,590.1538,283.6547,585.1473,288.8446,591.8635,291.4699,596.87,286.28" style="stroke:#181818;stroke-width:1.0;"/><text fill="#000000" font-family="sans-serif" font-size="13" lengthAdjust="spacing" textLength="81" x="385.5" y="305.0669">kontaktwege</text><text fill="#000000" font-family="sans-serif" font-size="13" lengthAdjust="spacing" textLength="23" x="565.9347" y="300.6416">0..*</text></g><!--link Geschaeftspartner to Anrede--><g id="link_Geschaeftspartner_Anrede"><path codeLine="67" d="M319.06,381 C421.86,381 537.13,381 600.78,381 " fill="none" id="Geschaeftspartner-to-Anrede" style="stroke:#181818;stroke-width:1.0;"/><polygon fill="#181818" points="612.78,381,606.78,377,600.78,381,606.78,385,612.78,381" style="stroke:#181818;stroke-width:1.0;"/><text fill="#000000" font-family="sans-serif" font-size="13" lengthAdjust="spacing" textLength="45" x="403.5" y="377.0669">anrede</text><text fill="#000000" font-family="sans-serif" font-size="13" lengthAdjust="spacing" textLength="24" x="580.9633" y="394.1782">0..1</text></g><!--link Geschaeftspartner to Geschaeftspartnerrolle--><g id="link_Geschaeftspartner_Geschaeftspartnerrolle"><path codeLine="68" d="M319.06,402.25 C397.8,413.03 479.0211,424.1607 546.8811,433.4607 " fill="none" id="Geschaeftspartner-to-Geschaeftspartnerrolle" style="stroke:#181818;stroke-width:1.0;"/><polygon fill="#181818" points="558.77,435.09,553.3687,430.3124,546.8811,433.4607,552.2825,438.2383,558.77,435.09" style="stroke:#181818;stroke-width:1.0;"/><text fill="#000000" font-family="sans-serif" font-size="13" lengthAdjust="spacing" textLength="152" x="350" y="403.0669">geschaeftspartnerrollen</text><text fill="#000000" font-family="sans-serif" font-size="13" lengthAdjust="spacing" textLength="23" x="527.932" y="446.7645">0..*</text></g><!--link Geschaeftspartner to Organisationstyp--><g id="link_Geschaeftspartner_Organisationstyp"><path codeLine="69" d="M319.07,442.59 C329.14,445.95 339.18,449.12 349,452 C426.58,474.76 505.7866,490.4291 567.8766,501.1991 " fill="none" id="Geschaeftspartner-to-Organisationstyp" style="stroke:#181818;stroke-width:1.0;"/><polygon fill="#181818" points="579.7,503.25,574.4719,498.2834,567.8766,501.1991,573.1047,506.1657,579.7,503.25" style="stroke:#181818;stroke-width:1.0;"/><text fill="#000000" font-family="sans-serif" font-size="13" lengthAdjust="spacing" textLength="106" x="373" y="448.0669">organisationstyp</text><text fill="#000000" font-family="sans-serif" font-size="13" lengthAdjust="spacing" textLength="24" x="548.0139" y="514.9443">0..1</text></g><!--link Geschaeftspartner to Titel--><g id="link_Geschaeftspartner_Titel"><path codeLine="70" d="M319.12,498 C329.01,503.46 339.01,508.52 349,513 C443.82,555.51 555.4814,571.7633 611.3514,577.8833 " fill="none" id="Geschaeftspartner-to-Titel" style="stroke:#181818;stroke-width:1.0;"/><polygon fill="#181818" points="623.28,579.19,617.7512,574.5605,611.3514,577.8833,616.8801,582.5129,623.28,579.19" style="stroke:#181818;stroke-width:1.0;"/><text fill="#000000" font-family="sans-serif" font-size="13" lengthAdjust="spacing" textLength="24" x="414" y="509.0669">titel</text><text fill="#000000" font-family="sans-serif" font-size="13" lengthAdjust="spacing" textLength="24" x="591.4035" y="592.1339">0..1</text></g><!--SRC=[bLNHRjem57tFLrZXhL9HqRQkoblQPcnYWWgG-b1LavDS4gkEZMm7DAh- -swSj934PK0UOljSvrxEERxci3B4IA9ObXkICWM9OL9uNiAfriGVWqvoYa5wJPKHe7n2DUcjabUFuEyFIqb0j57awMeu73tNY-Rl6bT_CmEAyYT_72tkVeRHZ-NY8Pmlfz7SVsw5Rq1fBA7_8LeOdO5Y2LRQ0pDEeOmPuhySDUHKfC2rWenfB4EKHO55zyAOIDc6fILm3g5Ga48_Hj0a5xHm859bL31DAmArEwGi4DvX2QMxperKxerRY3KIs0RUFA-AHX4I87uily8mbbQWPam6jzVttyERHfv6qmSaM0eRLm_FKUyXcYzcqrCboo0kbT4fDMM1ABxXNBvV96eb35NdIE7ayGsVBb-9BFQ4uOGCeglmvlgkpLYOAj0QR6GpFeUpy7uUBHRHoJwt6NPbPPK-ciW8VGPYLuhCPVHIV-PkgOnp4Ut8U1zPIsrMoB0RuS3CZkQEVJYb5K4TxW_ed4ZKyyLi8RECxgVda3gPJPVXPFaOZK_bDQwwbW8MEvd3nd0Bw9jTcM66Wve2D8VaRKisO9TGbyC0vTXRh9gHGJfAldphdChQ_xN5wgFmscQjrtILn6FZxiSMwdvWTjYVa4sxjRlOtRH4lhcDj2CBOz_ftm2NbnV4Hnek_FUk4X0gz1flbBo9ER9hv7yShA0v070yIKkX3qKo-4-Izov3xU1uYaze3R2jkG1nF7MFwQ1zO-3IyG_K0WJ4L6_Fond-aGAA6DdsT2wtPDZVlcB0K_qF]--></g></svg>