<?xml version="1.0" encoding="UTF-8" standalone="no"?>
<!DOCTYPE svg PUBLIC "-//W3C//DTD SVG 1.1//EN"
 "http://www.w3.org/Graphics/SVG/1.1/DTD/svg11.dtd">
<!-- Generated by graphviz version 2.43.0 (0)
 -->
<!-- Title: BO4E Pages: 1 -->
<svg width="1514pt" height="1477pt"
 viewBox="0.00 0.00 1514.00 1477.00" xmlns="http://www.w3.org/2000/svg" xmlns:xlink="http://www.w3.org/1999/xlink">
<g id="graph0" class="graph" transform="scale(1 1) rotate(0) translate(4 1473)">
<title>BO4E</title>
<polygon fill="white" stroke="transparent" points="-4,4 -4,-1473 1510,-1473 1510,4 -4,4"/>
<g id="clust1" class="cluster">
<title>cluster_0</title>
</g>
<g id="clust2" class="cluster">
<title>cluster_1</title>
</g>
<g id="clust3" class="cluster">
<title>cluster_2</title>
</g>
<g id="clust4" class="cluster">
<title>cluster_3</title>
</g>
<g id="clust5" class="cluster">
<title>cluster_4</title>
</g>
<g id="clust6" class="cluster">
<title>cluster_5</title>
</g>
<!-- bo.Geschaeftspartner -->
<g id="node1" class="node">
<title>bo.Geschaeftspartner</title>
<polygon fill="#b6d7a8" stroke="transparent" points="15.85,-598.82 15.85,-858.82 214.85,-858.82 214.85,-598.82 15.85,-598.82"/>
<text text-anchor="start" x="22.35" y="-839.42" font-family="Helvetica,sans-Serif" font-weight="bold" font-size="18.00">Geschaeftspartner</text>
<polygon fill="#dbebd4" stroke="transparent" points="18.35,-809.82 18.35,-828.82 213.35,-828.82 213.35,-809.82 18.35,-809.82"/>
<text text-anchor="start" x="22.35" y="-816.82" font-family="Helvetica,sans-Serif" font-size="10.00" fill="#555555">_id</text>
<polygon fill="#dbebd4" stroke="transparent" points="18.35,-790.82 18.35,-809.82 213.35,-809.82 213.35,-790.82 18.35,-790.82"/>
<text text-anchor="start" x="22.35" y="-797.82" font-family="Helvetica,sans-Serif" font-size="10.00" fill="#555555">_typ</text>
<polygon fill="#dbebd4" stroke="transparent" points="18.35,-771.82 18.35,-790.82 213.35,-790.82 213.35,-771.82 18.35,-771.82"/>
<text text-anchor="start" x="22.35" y="-778.82" font-family="Helvetica,sans-Serif" font-size="10.00" fill="#555555">_version</text>
<polygon fill="#dbebd4" stroke="transparent" points="18.35,-752.82 18.35,-771.82 213.35,-771.82 213.35,-752.82 18.35,-752.82"/>
<text text-anchor="start" x="22.35" y="-759.82" font-family="Helvetica,sans-Serif" font-size="10.00" fill="#555555">amtsgericht</text>
<polygon fill="#dbebd4" stroke="transparent" points="18.35,-733.82 18.35,-752.82 213.35,-752.82 213.35,-733.82 18.35,-733.82"/>
<text text-anchor="start" x="22.35" y="-740.82" font-family="Helvetica,sans-Serif" font-size="10.00" fill="#555555">glaeubigerId</text>
<polygon fill="#dbebd4" stroke="transparent" points="18.35,-714.82 18.35,-733.82 213.35,-733.82 213.35,-714.82 18.35,-714.82"/>
<text text-anchor="start" x="22.35" y="-721.82" font-family="Helvetica,sans-Serif" font-size="10.00" fill="#555555">handelsregisternummer</text>
<polygon fill="#dbebd4" stroke="transparent" points="18.35,-695.82 18.35,-714.82 213.35,-714.82 213.35,-695.82 18.35,-695.82"/>
<text text-anchor="start" x="22.35" y="-702.82" font-family="Helvetica,sans-Serif" font-size="10.00" fill="#555555">individuelleAnrede</text>
<polygon fill="#dbebd4" stroke="transparent" points="18.35,-676.82 18.35,-695.82 213.35,-695.82 213.35,-676.82 18.35,-676.82"/>
<text text-anchor="start" x="22.35" y="-683.82" font-family="Helvetica,sans-Serif" font-size="10.00" fill="#555555">nachname</text>
<polygon fill="#dbebd4" stroke="transparent" points="18.35,-657.82 18.35,-676.82 213.35,-676.82 213.35,-657.82 18.35,-657.82"/>
<text text-anchor="start" x="22.35" y="-664.82" font-family="Helvetica,sans-Serif" font-size="10.00" fill="#555555">organisationsname</text>
<polygon fill="#dbebd4" stroke="transparent" points="18.35,-638.82 18.35,-657.82 213.35,-657.82 213.35,-638.82 18.35,-638.82"/>
<text text-anchor="start" x="22.35" y="-645.82" font-family="Helvetica,sans-Serif" font-size="10.00" fill="#555555">umsatzsteuerId</text>
<polygon fill="#dbebd4" stroke="transparent" points="18.35,-619.82 18.35,-638.82 213.35,-638.82 213.35,-619.82 18.35,-619.82"/>
<text text-anchor="start" x="22.35" y="-626.82" font-family="Helvetica,sans-Serif" font-size="10.00" fill="#555555">vorname</text>
<polygon fill="#dbebd4" stroke="transparent" points="18.35,-600.82 18.35,-619.82 213.35,-619.82 213.35,-600.82 18.35,-600.82"/>
<text text-anchor="start" x="22.35" y="-607.82" font-family="Helvetica,sans-Serif" font-size="10.00" fill="#555555">website</text>
<polygon fill="none" stroke="#6d8164" stroke-width="2" points="16.85,-599.82 16.85,-857.82 213.85,-857.82 213.85,-599.82 16.85,-599.82"/>
</g>
<!-- bo.Person -->
<g id="node2" class="node">
<title>bo.Person</title>
<polygon fill="#b6d7a8" stroke="transparent" points="238.87,-769.84 238.87,-953.84 342.87,-953.84 342.87,-769.84 238.87,-769.84"/>
<text text-anchor="start" x="255.87" y="-934.44" font-family="Helvetica,sans-Serif" font-weight="bold" font-size="18.00">Person</text>
<polygon fill="#dbebd4" stroke="transparent" points="240.87,-904.84 240.87,-923.84 340.87,-923.84 340.87,-904.84 240.87,-904.84"/>
<text text-anchor="start" x="244.87" y="-911.84" font-family="Helvetica,sans-Serif" font-size="10.00" fill="#555555">_id</text>
<polygon fill="#dbebd4" stroke="transparent" points="240.87,-885.84 240.87,-904.84 340.87,-904.84 340.87,-885.84 240.87,-885.84"/>
<text text-anchor="start" x="244.87" y="-892.84" font-family="Helvetica,sans-Serif" font-size="10.00" fill="#555555">_typ</text>
<polygon fill="#dbebd4" stroke="transparent" points="240.87,-866.84 240.87,-885.84 340.87,-885.84 340.87,-866.84 240.87,-866.84"/>
<text text-anchor="start" x="244.87" y="-873.84" font-family="Helvetica,sans-Serif" font-size="10.00" fill="#555555">_version</text>
<polygon fill="#dbebd4" stroke="transparent" points="240.87,-847.84 240.87,-866.84 340.87,-866.84 340.87,-847.84 240.87,-847.84"/>
<text text-anchor="start" x="244.87" y="-854.84" font-family="Helvetica,sans-Serif" font-size="10.00" fill="#555555">geburtsdatum</text>
<polygon fill="#dbebd4" stroke="transparent" points="240.87,-828.84 240.87,-847.84 340.87,-847.84 340.87,-828.84 240.87,-828.84"/>
<text text-anchor="start" x="244.87" y="-835.84" font-family="Helvetica,sans-Serif" font-size="10.00" fill="#555555">individuelleAnrede</text>
<polygon fill="#dbebd4" stroke="transparent" points="240.87,-809.84 240.87,-828.84 340.87,-828.84 340.87,-809.84 240.87,-809.84"/>
<text text-anchor="start" x="244.87" y="-816.84" font-family="Helvetica,sans-Serif" font-size="10.00" fill="#555555">kommentar</text>
<polygon fill="#dbebd4" stroke="transparent" points="240.87,-790.84 240.87,-809.84 340.87,-809.84 340.87,-790.84 240.87,-790.84"/>
<text text-anchor="start" x="244.87" y="-797.84" font-family="Helvetica,sans-Serif" font-size="10.00" fill="#555555">nachname</text>
<polygon fill="#dbebd4" stroke="transparent" points="240.87,-771.84 240.87,-790.84 340.87,-790.84 340.87,-771.84 240.87,-771.84"/>
<text text-anchor="start" x="244.87" y="-778.84" font-family="Helvetica,sans-Serif" font-size="10.00" fill="#555555">vorname</text>
<polygon fill="none" stroke="#6d8164" stroke-width="2" points="239.87,-770.84 239.87,-952.84 341.87,-952.84 341.87,-770.84 239.87,-770.84"/>
</g>
<!-- bo.Geschaeftspartner&#45;&gt;bo.Person -->
<g id="edge2" class="edge">
<title>bo.Geschaeftspartner&#45;&gt;bo.Person</title>
<path fill="none" stroke="black" d="M223.01,-810.41C223.17,-810.53 223.33,-810.65 223.49,-810.77"/>
<polygon fill="black" stroke="black" points="220.51,-812.91 230.6,-816.16 224.74,-807.33 220.51,-812.91"/>
</g>
<!-- enum.Anrede -->
<g id="node3" class="node">
<title>enum.Anrede</title>
<polygon fill="#d1c358" stroke="transparent" points="110.81,-902.18 110.81,-934.18 195.81,-934.18 195.81,-902.18 110.81,-902.18"/>
<text text-anchor="start" x="117.31" y="-914.78" font-family="Helvetica,sans-Serif" font-weight="bold" font-size="18.00">Anrede</text>
<polygon fill="none" stroke="#7d7534" stroke-width="2" points="111.81,-903.18 111.81,-933.18 194.81,-933.18 194.81,-903.18 111.81,-903.18"/>
</g>
<!-- bo.Geschaeftspartner&#45;&gt;enum.Anrede -->
<g id="edge5" class="edge">
<title>bo.Geschaeftspartner&#45;&gt;enum.Anrede</title>
<path fill="none" stroke="black" d="M142.23,-862.9C144.07,-872.06 145.78,-880.62 147.29,-888.15"/>
<polygon fill="black" stroke="black" points="143.88,-888.92 149.27,-898.04 150.74,-887.55 143.88,-888.92"/>
</g>
<!-- enum.Geschaeftspartnerrolle -->
<g id="node4" class="node">
<title>enum.Geschaeftspartnerrolle</title>
<polygon fill="#d1c358" stroke="transparent" points="263.31,-693.18 263.31,-725.18 507.31,-725.18 507.31,-693.18 263.31,-693.18"/>
<text text-anchor="start" x="269.31" y="-705.78" font-family="Helvetica,sans-Serif" font-weight="bold" font-size="18.00">Geschaeftspartnerrolle</text>
<polygon fill="none" stroke="#7d7534" stroke-width="2" points="264.31,-694.18 264.31,-724.18 506.31,-724.18 506.31,-694.18 264.31,-694.18"/>
</g>
<!-- bo.Geschaeftspartner&#45;&gt;enum.Geschaeftspartnerrolle -->
<g id="edge6" class="edge">
<title>bo.Geschaeftspartner&#45;&gt;enum.Geschaeftspartnerrolle</title>
<path fill="none" stroke="black" d="M223.21,-720.97C230.22,-720.46 237.33,-719.94 244.45,-719.43"/>
<polygon fill="black" stroke="black" points="245.19,-722.88 254.91,-718.67 244.68,-715.9 245.19,-722.88"/>
</g>
<!-- enum.Organisationstyp -->
<g id="node5" class="node">
<title>enum.Organisationstyp</title>
<polygon fill="#d1c358" stroke="transparent" points="262.81,-617.18 262.81,-649.18 447.81,-649.18 447.81,-617.18 262.81,-617.18"/>
<text text-anchor="start" x="269.31" y="-629.78" font-family="Helvetica,sans-Serif" font-weight="bold" font-size="18.00">Organisationstyp</text>
<polygon fill="none" stroke="#7d7534" stroke-width="2" points="263.81,-618.18 263.81,-648.18 446.81,-648.18 446.81,-618.18 263.81,-618.18"/>
</g>
<!-- bo.Geschaeftspartner&#45;&gt;enum.Organisationstyp -->
<g id="edge7" class="edge">
<title>bo.Geschaeftspartner&#45;&gt;enum.Organisationstyp</title>
<path fill="none" stroke="black" d="M223.05,-685.89C247.9,-675.99 273.47,-665.8 295.41,-657.05"/>
<polygon fill="black" stroke="black" points="296.91,-660.22 304.91,-653.27 294.32,-653.72 296.91,-660.22"/>
</g>
<!-- enum.Titel -->
<g id="node6" class="node">
<title>enum.Titel</title>
<polygon fill="#d1c358" stroke="transparent" points="129.81,-978.18 129.81,-1010.18 186.81,-1010.18 186.81,-978.18 129.81,-978.18"/>
<text text-anchor="start" x="136.31" y="-990.78" font-family="Helvetica,sans-Serif" font-weight="bold" font-size="18.00">Titel</text>
<polygon fill="none" stroke="#7d7534" stroke-width="2" points="130.81,-979.18 130.81,-1009.18 185.81,-1009.18 185.81,-979.18 130.81,-979.18"/>
</g>
<!-- bo.Geschaeftspartner&#45;&gt;enum.Titel -->
<g id="edge8" class="edge">
<title>bo.Geschaeftspartner&#45;&gt;enum.Titel</title>
<path fill="none" stroke="black" d="M85.84,-862.96C85.29,-889.77 88.81,-917.13 99.61,-941.38 103.92,-951.05 110.97,-959.7 118.72,-967.05"/>
<polygon fill="black" stroke="black" points="116.8,-970.01 126.63,-973.96 121.41,-964.75 116.8,-970.01"/>
</g>
<!-- com.Kontaktweg -->
<g id="node15" class="node">
<title>com.Kontaktweg</title>
<polygon fill="#e0a86c" stroke="transparent" points="200.72,-1288.28 200.72,-1434.28 342.72,-1434.28 342.72,-1288.28 200.72,-1288.28"/>
<text text-anchor="start" x="211.22" y="-1414.88" font-family="Helvetica,sans-Serif" font-weight="bold" font-size="18.00">Kontaktweg</text>
<polygon fill="#efd3b5" stroke="transparent" points="202.72,-1385.28 202.72,-1404.28 340.72,-1404.28 340.72,-1385.28 202.72,-1385.28"/>
<text text-anchor="start" x="206.72" y="-1392.28" font-family="Helvetica,sans-Serif" font-size="10.00" fill="#555555">_id</text>
<polygon fill="#efd3b5" stroke="transparent" points="202.72,-1366.28 202.72,-1385.28 340.72,-1385.28 340.72,-1366.28 202.72,-1366.28"/>
<text text-anchor="start" x="206.72" y="-1373.28" font-family="Helvetica,sans-Serif" font-size="10.00" fill="#555555">_typ</text>
<polygon fill="#efd3b5" stroke="transparent" points="202.72,-1347.28 202.72,-1366.28 340.72,-1366.28 340.72,-1347.28 202.72,-1347.28"/>
<text text-anchor="start" x="206.72" y="-1354.28" font-family="Helvetica,sans-Serif" font-size="10.00" fill="#555555">_version</text>
<polygon fill="#efd3b5" stroke="transparent" points="202.72,-1328.28 202.72,-1347.28 340.72,-1347.28 340.72,-1328.28 202.72,-1328.28"/>
<text text-anchor="start" x="206.72" y="-1335.28" font-family="Helvetica,sans-Serif" font-size="10.00" fill="#555555">beschreibung</text>
<polygon fill="#efd3b5" stroke="transparent" points="202.72,-1309.28 202.72,-1328.28 340.72,-1328.28 340.72,-1309.28 202.72,-1309.28"/>
<text text-anchor="start" x="206.72" y="-1316.28" font-family="Helvetica,sans-Serif" font-size="10.00" fill="#555555">istBevorzugterKontaktweg</text>
<polygon fill="#efd3b5" stroke="transparent" points="202.72,-1290.28 202.72,-1309.28 340.72,-1309.28 340.72,-1290.28 202.72,-1290.28"/>
<text text-anchor="start" x="206.72" y="-1297.28" font-family="Helvetica,sans-Serif" font-size="10.00" fill="#555555">kontaktwert</text>
<polygon fill="none" stroke="#866440" stroke-width="2" points="201.72,-1289.28 201.72,-1433.28 341.72,-1433.28 341.72,-1289.28 201.72,-1289.28"/>
</g>
<!-- bo.Geschaeftspartner&#45;&gt;com.Kontaktweg -->
<g id="edge4" class="edge">
<title>bo.Geschaeftspartner&#45;&gt;com.Kontaktweg</title>
<path fill="none" stroke="black" d="M194.62,-862.99C199.26,-873.61 203.48,-884.35 207.01,-894.98 249.43,-1022.56 264.05,-1178.73 269.09,-1274.06"/>
<polygon fill="black" stroke="black" points="265.6,-1274.42 269.6,-1284.23 272.59,-1274.07 265.6,-1274.42"/>
</g>
<!-- ZusatzAttribut -->
<g id="node19" class="node">
<title>ZusatzAttribut</title>
<polygon fill="#d9d9d9" stroke="transparent" points="667.58,-906.28 667.58,-976.28 826.58,-976.28 826.58,-906.28 667.58,-906.28"/>
<text text-anchor="start" x="674.08" y="-956.88" font-family="Helvetica,sans-Serif" font-weight="bold" font-size="18.00">ZusatzAttribut</text>
<polygon fill="#eaeaea" stroke="transparent" points="670.08,-927.28 670.08,-946.28 825.08,-946.28 825.08,-927.28 670.08,-927.28"/>
<text text-anchor="start" x="674.08" y="-934.28" font-family="Helvetica,sans-Serif" font-size="10.00" fill="#555555">name</text>
<polygon fill="#eaeaea" stroke="transparent" points="670.08,-908.28 670.08,-927.28 825.08,-927.28 825.08,-908.28 670.08,-908.28"/>
<text text-anchor="start" x="674.08" y="-915.28" font-family="Helvetica,sans-Serif" font-size="10.00" fill="#555555">wert</text>
<polygon fill="none" stroke="#8c8c8c" stroke-width="2" points="668.58,-907.28 668.58,-975.28 825.58,-975.28 825.58,-907.28 668.58,-907.28"/>
</g>
<!-- bo.Geschaeftspartner&#45;&gt;ZusatzAttribut -->
<g id="edge1" class="edge">
<title>bo.Geschaeftspartner&#45;&gt;ZusatzAttribut</title>
<path fill="none" stroke="black" d="M223.08,-733.04C265.13,-737.49 313,-746.14 354.07,-762.64 449.29,-800.91 444.48,-864.08 541.51,-897.47 562.56,-904.72 616.35,-898.11 649.56,-901.92"/>
<polygon fill="black" stroke="black" points="649.12,-905.39 659.55,-903.55 650.24,-898.48 649.12,-905.39"/>
</g>
<!-- com.Adresse -->
<g id="node20" class="node">
<title>com.Adresse</title>
<polygon fill="#e0a86c" stroke="transparent" points="547.27,-909.04 547.27,-1150.04 641.27,-1150.04 641.27,-909.04 547.27,-909.04"/>
<text text-anchor="start" x="553.27" y="-1130.14" font-family="Helvetica,sans-Serif" font-weight="bold" font-size="18.00">Adresse</text>
<polygon fill="#efd3b5" stroke="transparent" points="549.27,-1100.54 549.27,-1119.54 639.27,-1119.54 639.27,-1100.54 549.27,-1100.54"/>
<text text-anchor="start" x="553.27" y="-1107.54" font-family="Helvetica,sans-Serif" font-size="10.00" fill="#555555">_id</text>
<polygon fill="#efd3b5" stroke="transparent" points="549.27,-1081.54 549.27,-1100.54 639.27,-1100.54 639.27,-1081.54 549.27,-1081.54"/>
<text text-anchor="start" x="553.27" y="-1088.54" font-family="Helvetica,sans-Serif" font-size="10.00" fill="#555555">_typ</text>
<polygon fill="#efd3b5" stroke="transparent" points="549.27,-1062.54 549.27,-1081.54 639.27,-1081.54 639.27,-1062.54 549.27,-1062.54"/>
<text text-anchor="start" x="553.27" y="-1069.54" font-family="Helvetica,sans-Serif" font-size="10.00" fill="#555555">_version</text>
<polygon fill="#efd3b5" stroke="transparent" points="549.27,-1043.54 549.27,-1062.54 639.27,-1062.54 639.27,-1043.54 549.27,-1043.54"/>
<text text-anchor="start" x="553.27" y="-1050.54" font-family="Helvetica,sans-Serif" font-size="10.00" fill="#555555">adresszusatz</text>
<polygon fill="#efd3b5" stroke="transparent" points="549.27,-1024.54 549.27,-1043.54 639.27,-1043.54 639.27,-1024.54 549.27,-1024.54"/>
<text text-anchor="start" x="553.27" y="-1031.54" font-family="Helvetica,sans-Serif" font-size="10.00" fill="#555555">coErgaenzung</text>
<polygon fill="#efd3b5" stroke="transparent" points="549.27,-1005.54 549.27,-1024.54 639.27,-1024.54 639.27,-1005.54 549.27,-1005.54"/>
<text text-anchor="start" x="553.27" y="-1012.54" font-family="Helvetica,sans-Serif" font-size="10.00" fill="#555555">hausnummer</text>
<polygon fill="#efd3b5" stroke="transparent" points="549.27,-986.54 549.27,-1005.54 639.27,-1005.54 639.27,-986.54 549.27,-986.54"/>
<text text-anchor="start" x="553.27" y="-993.54" font-family="Helvetica,sans-Serif" font-size="10.00" fill="#555555">ort</text>
<polygon fill="#efd3b5" stroke="transparent" points="549.27,-967.54 549.27,-986.54 639.27,-986.54 639.27,-967.54 549.27,-967.54"/>
<text text-anchor="start" x="553.27" y="-974.54" font-family="Helvetica,sans-Serif" font-size="10.00" fill="#555555">ortsteil</text>
<polygon fill="#efd3b5" stroke="transparent" points="549.27,-948.54 549.27,-967.54 639.27,-967.54 639.27,-948.54 549.27,-948.54"/>
<text text-anchor="start" x="553.27" y="-955.54" font-family="Helvetica,sans-Serif" font-size="10.00" fill="#555555">postfach</text>
<polygon fill="#efd3b5" stroke="transparent" points="549.27,-929.54 549.27,-948.54 639.27,-948.54 639.27,-929.54 549.27,-929.54"/>
<text text-anchor="start" x="553.27" y="-936.54" font-family="Helvetica,sans-Serif" font-size="10.00" fill="#555555">postleitzahl</text>
<polygon fill="#efd3b5" stroke="transparent" points="549.27,-910.54 549.27,-929.54 639.27,-929.54 639.27,-910.54 549.27,-910.54"/>
<text text-anchor="start" x="553.27" y="-917.54" font-family="Helvetica,sans-Serif" font-size="10.00" fill="#555555">strasse</text>
<polygon fill="none" stroke="#866440" stroke-width="2" points="548.27,-910.04 548.27,-1149.04 640.27,-1149.04 640.27,-910.04 548.27,-910.04"/>
</g>
<!-- bo.Geschaeftspartner&#45;&gt;com.Adresse -->
<g id="edge3" class="edge">
<title>bo.Geschaeftspartner&#45;&gt;com.Adresse</title>
<path fill="none" stroke="black" d="M222.99,-736.89C275.13,-742.23 331.3,-750.52 354.07,-762.64 428.04,-802.04 490.55,-873.65 533.25,-932.79"/>
<polygon fill="black" stroke="black" points="530.49,-934.94 539.15,-941.04 536.19,-930.87 530.49,-934.94"/>
</g>
<!-- bo.Person&#45;&gt;enum.Anrede -->
<g id="edge13" class="edge">
<title>bo.Person&#45;&gt;enum.Anrede</title>
<path fill="none" stroke="black" d="M230.54,-886.55C224.38,-889.08 218.13,-891.64 211.99,-894.15"/>
<polygon fill="black" stroke="black" points="210.38,-891.02 202.46,-898.05 213.04,-897.5 210.38,-891.02"/>
</g>
<!-- bo.Person&#45;&gt;enum.Titel -->
<g id="edge14" class="edge">
<title>bo.Person&#45;&gt;enum.Titel</title>
<path fill="none" stroke="black" d="M230.8,-921.82C215.11,-937.48 198.95,-953.61 185.88,-966.66"/>
<polygon fill="black" stroke="black" points="183.17,-964.41 178.57,-973.96 188.12,-969.37 183.17,-964.41"/>
</g>
<!-- bo.Person&#45;&gt;com.Kontaktweg -->
<g id="edge11" class="edge">
<title>bo.Person&#45;&gt;com.Kontaktweg</title>
<path fill="none" stroke="black" d="M287.19,-957.84C283.69,-1049.24 278.46,-1185.61 275.07,-1274"/>
<polygon fill="black" stroke="black" points="271.57,-1273.88 274.69,-1284 278.57,-1274.14 271.57,-1273.88"/>
</g>
<!-- bo.Person&#45;&gt;ZusatzAttribut -->
<g id="edge9" class="edge">
<title>bo.Person&#45;&gt;ZusatzAttribut</title>
<path fill="none" stroke="black" d="M350.94,-872.14C401.58,-880.39 476.07,-891.55 541.51,-897.47 563.69,-899.48 616.57,-897.09 649.59,-901.77"/>
<polygon fill="black" stroke="black" points="649.09,-905.24 659.55,-903.55 650.32,-898.34 649.09,-905.24"/>
</g>
<!-- bo.Person&#45;&gt;com.Adresse -->
<g id="edge10" class="edge">
<title>bo.Person&#45;&gt;com.Adresse</title>
<path fill="none" stroke="black" d="M351.18,-895.18C402.96,-923.8 477.4,-964.94 530.24,-994.15"/>
<polygon fill="black" stroke="black" points="528.74,-997.32 539.19,-999.09 532.13,-991.19 528.74,-997.32"/>
</g>
<!-- com.Zustaendigkeit -->
<g id="node21" class="node">
<title>com.Zustaendigkeit</title>
<polygon fill="#e0a86c" stroke="transparent" points="552.71,-763.27 552.71,-890.27 715.71,-890.27 715.71,-763.27 552.71,-763.27"/>
<text text-anchor="start" x="559.21" y="-870.37" font-family="Helvetica,sans-Serif" font-weight="bold" font-size="18.00">Zustaendigkeit</text>
<polygon fill="#efd3b5" stroke="transparent" points="555.21,-840.77 555.21,-859.77 714.21,-859.77 714.21,-840.77 555.21,-840.77"/>
<text text-anchor="start" x="559.21" y="-847.77" font-family="Helvetica,sans-Serif" font-size="10.00" fill="#555555">_id</text>
<polygon fill="#efd3b5" stroke="transparent" points="555.21,-821.77 555.21,-840.77 714.21,-840.77 714.21,-821.77 555.21,-821.77"/>
<text text-anchor="start" x="559.21" y="-828.77" font-family="Helvetica,sans-Serif" font-size="10.00" fill="#555555">_typ</text>
<polygon fill="#efd3b5" stroke="transparent" points="555.21,-802.77 555.21,-821.77 714.21,-821.77 714.21,-802.77 555.21,-802.77"/>
<text text-anchor="start" x="559.21" y="-809.77" font-family="Helvetica,sans-Serif" font-size="10.00" fill="#555555">_version</text>
<polygon fill="#efd3b5" stroke="transparent" points="555.21,-783.77 555.21,-802.77 714.21,-802.77 714.21,-783.77 555.21,-783.77"/>
<text text-anchor="start" x="559.21" y="-790.77" font-family="Helvetica,sans-Serif" font-size="10.00" fill="#555555">abteilung</text>
<polygon fill="#efd3b5" stroke="transparent" points="555.21,-764.77 555.21,-783.77 714.21,-783.77 714.21,-764.77 555.21,-764.77"/>
<text text-anchor="start" x="559.21" y="-771.77" font-family="Helvetica,sans-Serif" font-size="10.00" fill="#555555">position</text>
<polygon fill="none" stroke="#866440" stroke-width="2" points="553.71,-764.27 553.71,-889.27 714.71,-889.27 714.71,-764.27 553.71,-764.27"/>
</g>
<!-- bo.Person&#45;&gt;com.Zustaendigkeit -->
<g id="edge12" class="edge">
<title>bo.Person&#45;&gt;com.Zustaendigkeit</title>
<path fill="none" stroke="black" d="M351.07,-855.69C401.7,-850.52 475.13,-843.02 534.51,-836.96"/>
<polygon fill="black" stroke="black" points="535.08,-840.42 544.67,-835.92 534.37,-833.45 535.08,-840.42"/>
</g>
<!-- bo.Vertrag -->
<g id="node7" class="node">
<title>bo.Vertrag</title>
<polygon fill="#b6d7a8" stroke="transparent" points="993.45,-325.84 993.45,-490.84 1087.45,-490.84 1087.45,-325.84 993.45,-325.84"/>
<text text-anchor="start" x="1002.45" y="-470.94" font-family="Helvetica,sans-Serif" font-weight="bold" font-size="18.00">Vertrag</text>
<polygon fill="#dbebd4" stroke="transparent" points="995.45,-441.34 995.45,-460.34 1085.45,-460.34 1085.45,-441.34 995.45,-441.34"/>
<text text-anchor="start" x="999.45" y="-448.34" font-family="Helvetica,sans-Serif" font-size="10.00" fill="#555555">_id</text>
<polygon fill="#dbebd4" stroke="transparent" points="995.45,-422.34 995.45,-441.34 1085.45,-441.34 1085.45,-422.34 995.45,-422.34"/>
<text text-anchor="start" x="999.45" y="-429.34" font-family="Helvetica,sans-Serif" font-size="10.00" fill="#555555">_typ</text>
<polygon fill="#dbebd4" stroke="transparent" points="995.45,-403.34 995.45,-422.34 1085.45,-422.34 1085.45,-403.34 995.45,-403.34"/>
<text text-anchor="start" x="999.45" y="-410.34" font-family="Helvetica,sans-Serif" font-size="10.00" fill="#555555">_version</text>
<polygon fill="#dbebd4" stroke="transparent" points="995.45,-384.34 995.45,-403.34 1085.45,-403.34 1085.45,-384.34 995.45,-384.34"/>
<text text-anchor="start" x="999.45" y="-391.34" font-family="Helvetica,sans-Serif" font-size="10.00" fill="#555555">beschreibung</text>
<polygon fill="#dbebd4" stroke="transparent" points="995.45,-365.34 995.45,-384.34 1085.45,-384.34 1085.45,-365.34 995.45,-365.34"/>
<text text-anchor="start" x="999.45" y="-372.34" font-family="Helvetica,sans-Serif" font-size="10.00" fill="#555555">vertragsbeginn</text>
<polygon fill="#dbebd4" stroke="transparent" points="995.45,-346.34 995.45,-365.34 1085.45,-365.34 1085.45,-346.34 995.45,-346.34"/>
<text text-anchor="start" x="999.45" y="-353.34" font-family="Helvetica,sans-Serif" font-size="10.00" fill="#555555">vertragsende</text>
<polygon fill="#dbebd4" stroke="transparent" points="995.45,-327.34 995.45,-346.34 1085.45,-346.34 1085.45,-327.34 995.45,-327.34"/>
<text text-anchor="start" x="999.45" y="-334.34" font-family="Helvetica,sans-Serif" font-size="10.00" fill="#555555">vertragsnummer</text>
<polygon fill="none" stroke="#6d8164" stroke-width="2" points="994.45,-326.84 994.45,-489.84 1086.45,-489.84 1086.45,-326.84 994.45,-326.84"/>
</g>
<!-- bo.Vertrag&#45;&gt;bo.Geschaeftspartner -->
<g id="edge16" class="edge">
<title>bo.Vertrag&#45;&gt;bo.Geschaeftspartner</title>
<path fill="none" stroke="black" d="M985.36,-430.63C982.82,-431.38 980.3,-432.07 977.81,-432.69 911.55,-449.12 890.16,-429.29 825.23,-450.37 647.61,-508.03 635.85,-596.35 459.01,-656.38 371.05,-686.24 342.71,-665.45 252.11,-685.98 245.9,-687.39 239.56,-688.94 233.19,-690.6"/>
<polygon fill="black" stroke="black" points="231.91,-687.32 223.16,-693.28 233.72,-694.08 231.91,-687.32"/>
</g>
<!-- com.Unterschrift -->
<g id="node8" class="node">
<title>com.Unterschrift</title>
<polygon fill="#e0a86c" stroke="transparent" points="836.43,-457.57 836.43,-603.57 969.43,-603.57 969.43,-457.57 836.43,-457.57"/>
<text text-anchor="start" x="842.93" y="-584.17" font-family="Helvetica,sans-Serif" font-weight="bold" font-size="18.00">Unterschrift</text>
<polygon fill="#efd3b5" stroke="transparent" points="838.93,-554.57 838.93,-573.57 967.93,-573.57 967.93,-554.57 838.93,-554.57"/>
<text text-anchor="start" x="842.93" y="-561.57" font-family="Helvetica,sans-Serif" font-size="10.00" fill="#555555">_id</text>
<polygon fill="#efd3b5" stroke="transparent" points="838.93,-535.57 838.93,-554.57 967.93,-554.57 967.93,-535.57 838.93,-535.57"/>
<text text-anchor="start" x="842.93" y="-542.57" font-family="Helvetica,sans-Serif" font-size="10.00" fill="#555555">_typ</text>
<polygon fill="#efd3b5" stroke="transparent" points="838.93,-516.57 838.93,-535.57 967.93,-535.57 967.93,-516.57 838.93,-516.57"/>
<text text-anchor="start" x="842.93" y="-523.57" font-family="Helvetica,sans-Serif" font-size="10.00" fill="#555555">_version</text>
<polygon fill="#efd3b5" stroke="transparent" points="838.93,-497.57 838.93,-516.57 967.93,-516.57 967.93,-497.57 838.93,-497.57"/>
<text text-anchor="start" x="842.93" y="-504.57" font-family="Helvetica,sans-Serif" font-size="10.00" fill="#555555">datum</text>
<polygon fill="#efd3b5" stroke="transparent" points="838.93,-478.57 838.93,-497.57 967.93,-497.57 967.93,-478.57 838.93,-478.57"/>
<text text-anchor="start" x="842.93" y="-485.57" font-family="Helvetica,sans-Serif" font-size="10.00" fill="#555555">name</text>
<polygon fill="#efd3b5" stroke="transparent" points="838.93,-459.57 838.93,-478.57 967.93,-478.57 967.93,-459.57 838.93,-459.57"/>
<text text-anchor="start" x="842.93" y="-466.57" font-family="Helvetica,sans-Serif" font-size="10.00" fill="#555555">ort</text>
<polygon fill="none" stroke="#866440" stroke-width="2" points="837.43,-458.57 837.43,-602.57 968.43,-602.57 968.43,-458.57 837.43,-458.57"/>
</g>
<!-- bo.Vertrag&#45;&gt;com.Unterschrift -->
<g id="edge17" class="edge">
<title>bo.Vertrag&#45;&gt;com.Unterschrift</title>
<path fill="none" stroke="black" d="M985.31,-457.35C985.15,-457.49 984.99,-457.64 984.83,-457.78"/>
<polygon fill="black" stroke="black" points="982.77,-454.92 977.62,-464.18 987.42,-460.16 982.77,-454.92"/>
</g>
<!-- enum.Sparte -->
<g id="node9" class="node">
<title>enum.Sparte</title>
<polygon fill="#d1c358" stroke="transparent" points="887.61,-393.49 887.61,-425.49 966.61,-425.49 966.61,-393.49 887.61,-393.49"/>
<text text-anchor="start" x="894.11" y="-406.09" font-family="Helvetica,sans-Serif" font-weight="bold" font-size="18.00">Sparte</text>
<polygon fill="none" stroke="#7d7534" stroke-width="2" points="888.61,-394.49 888.61,-424.49 965.61,-424.49 965.61,-394.49 888.61,-394.49"/>
</g>
<!-- bo.Vertrag&#45;&gt;enum.Sparte -->
<g id="edge20" class="edge">
<title>bo.Vertrag&#45;&gt;enum.Sparte</title>
<path fill="none" stroke="black" d="M985.44,-408.9C985.21,-408.9 984.99,-408.9 984.76,-408.91"/>
<polygon fill="black" stroke="black" points="984.6,-405.41 974.64,-409.01 984.67,-412.41 984.6,-405.41"/>
</g>
<!-- enum.Vertragsart -->
<g id="node10" class="node">
<title>enum.Vertragsart</title>
<polygon fill="#d1c358" stroke="transparent" points="1092.11,-597.49 1092.11,-629.49 1220.11,-629.49 1220.11,-597.49 1092.11,-597.49"/>
<text text-anchor="start" x="1098.11" y="-610.09" font-family="Helvetica,sans-Serif" font-weight="bold" font-size="18.00">Vertragsart</text>
<polygon fill="none" stroke="#7d7534" stroke-width="2" points="1093.11,-598.49 1093.11,-628.49 1219.11,-628.49 1219.11,-598.49 1093.11,-598.49"/>
</g>
<!-- bo.Vertrag&#45;&gt;enum.Vertragsart -->
<g id="edge21" class="edge">
<title>bo.Vertrag&#45;&gt;enum.Vertragsart</title>
<path fill="none" stroke="black" d="M1095.74,-432.41C1131.43,-451.22 1174.94,-481.11 1195.81,-522.29 1205.13,-540.68 1203.12,-549.41 1195.81,-568.69 1193.53,-574.68 1190.05,-580.39 1186.07,-585.6"/>
<polygon fill="black" stroke="black" points="1183.3,-583.45 1179.52,-593.35 1188.65,-587.97 1183.3,-583.45"/>
</g>
<!-- enum.Vertragsstatus -->
<g id="node11" class="node">
<title>enum.Vertragsstatus</title>
<polygon fill="#d1c358" stroke="transparent" points="1023.61,-529.49 1023.61,-561.49 1184.61,-561.49 1184.61,-529.49 1023.61,-529.49"/>
<text text-anchor="start" x="1030.11" y="-542.09" font-family="Helvetica,sans-Serif" font-weight="bold" font-size="18.00">Vertragsstatus</text>
<polygon fill="none" stroke="#7d7534" stroke-width="2" points="1024.61,-530.49 1024.61,-560.49 1183.61,-560.49 1183.61,-530.49 1024.61,-530.49"/>
</g>
<!-- bo.Vertrag&#45;&gt;enum.Vertragsstatus -->
<g id="edge22" class="edge">
<title>bo.Vertrag&#45;&gt;enum.Vertragsstatus</title>
<path fill="none" stroke="black" d="M1080.76,-495.2C1084.13,-502.46 1087.36,-509.42 1090.29,-515.73"/>
<polygon fill="black" stroke="black" points="1087.23,-517.45 1094.62,-525.05 1093.58,-514.51 1087.23,-517.45"/>
</g>
<!-- com.Vertragsteil -->
<g id="node13" class="node">
<title>com.Vertragsteil</title>
<polygon fill="#e0a86c" stroke="transparent" points="583.2,-85.39 583.2,-231.39 714.2,-231.39 714.2,-85.39 583.2,-85.39"/>
<text text-anchor="start" x="589.7" y="-211.99" font-family="Helvetica,sans-Serif" font-weight="bold" font-size="18.00">Vertragsteil</text>
<polygon fill="#efd3b5" stroke="transparent" points="585.7,-182.39 585.7,-201.39 712.7,-201.39 712.7,-182.39 585.7,-182.39"/>
<text text-anchor="start" x="589.7" y="-189.39" font-family="Helvetica,sans-Serif" font-size="10.00" fill="#555555">_id</text>
<polygon fill="#efd3b5" stroke="transparent" points="585.7,-163.39 585.7,-182.39 712.7,-182.39 712.7,-163.39 585.7,-163.39"/>
<text text-anchor="start" x="589.7" y="-170.39" font-family="Helvetica,sans-Serif" font-size="10.00" fill="#555555">_typ</text>
<polygon fill="#efd3b5" stroke="transparent" points="585.7,-144.39 585.7,-163.39 712.7,-163.39 712.7,-144.39 585.7,-144.39"/>
<text text-anchor="start" x="589.7" y="-151.39" font-family="Helvetica,sans-Serif" font-size="10.00" fill="#555555">_version</text>
<polygon fill="#efd3b5" stroke="transparent" points="585.7,-125.39 585.7,-144.39 712.7,-144.39 712.7,-125.39 585.7,-125.39"/>
<text text-anchor="start" x="589.7" y="-132.39" font-family="Helvetica,sans-Serif" font-size="10.00" fill="#555555">lokation</text>
<polygon fill="#efd3b5" stroke="transparent" points="585.7,-106.39 585.7,-125.39 712.7,-125.39 712.7,-106.39 585.7,-106.39"/>
<text text-anchor="start" x="589.7" y="-113.39" font-family="Helvetica,sans-Serif" font-size="10.00" fill="#555555">vertragsteilbeginn</text>
<polygon fill="#efd3b5" stroke="transparent" points="585.7,-87.39 585.7,-106.39 712.7,-106.39 712.7,-87.39 585.7,-87.39"/>
<text text-anchor="start" x="589.7" y="-94.39" font-family="Helvetica,sans-Serif" font-size="10.00" fill="#555555">vertragsteilende</text>
<polygon fill="none" stroke="#866440" stroke-width="2" points="584.2,-86.39 584.2,-230.39 713.2,-230.39 713.2,-86.39 584.2,-86.39"/>
</g>
<!-- bo.Vertrag&#45;&gt;com.Vertragsteil -->
<g id="edge19" class="edge">
<title>bo.Vertrag&#45;&gt;com.Vertragsteil</title>
<path fill="none" stroke="black" d="M985.15,-373.06C918.94,-330.82 807.45,-259.68 731.09,-210.96"/>
<polygon fill="black" stroke="black" points="732.74,-207.86 722.42,-205.43 728.97,-213.76 732.74,-207.86"/>
</g>
<!-- com.Vertragskonditionen -->
<g id="node17" class="node">
<title>com.Vertragskonditionen</title>
<polygon fill="#e0a86c" stroke="transparent" points="1223.56,-840.54 1223.56,-967.54 1440.56,-967.54 1440.56,-840.54 1223.56,-840.54"/>
<text text-anchor="start" x="1230.06" y="-947.64" font-family="Helvetica,sans-Serif" font-weight="bold" font-size="18.00">Vertragskonditionen</text>
<polygon fill="#efd3b5" stroke="transparent" points="1226.06,-918.04 1226.06,-937.04 1439.06,-937.04 1439.06,-918.04 1226.06,-918.04"/>
<text text-anchor="start" x="1230.06" y="-925.04" font-family="Helvetica,sans-Serif" font-size="10.00" fill="#555555">_id</text>
<polygon fill="#efd3b5" stroke="transparent" points="1226.06,-899.04 1226.06,-918.04 1439.06,-918.04 1439.06,-899.04 1226.06,-899.04"/>
<text text-anchor="start" x="1230.06" y="-906.04" font-family="Helvetica,sans-Serif" font-size="10.00" fill="#555555">_typ</text>
<polygon fill="#efd3b5" stroke="transparent" points="1226.06,-880.04 1226.06,-899.04 1439.06,-899.04 1439.06,-880.04 1226.06,-880.04"/>
<text text-anchor="start" x="1230.06" y="-887.04" font-family="Helvetica,sans-Serif" font-size="10.00" fill="#555555">_version</text>
<polygon fill="#efd3b5" stroke="transparent" points="1226.06,-861.04 1226.06,-880.04 1439.06,-880.04 1439.06,-861.04 1226.06,-861.04"/>
<text text-anchor="start" x="1230.06" y="-868.04" font-family="Helvetica,sans-Serif" font-size="10.00" fill="#555555">anzahlAbschlaege</text>
<polygon fill="#efd3b5" stroke="transparent" points="1226.06,-842.04 1226.06,-861.04 1439.06,-861.04 1439.06,-842.04 1226.06,-842.04"/>
<text text-anchor="start" x="1230.06" y="-849.04" font-family="Helvetica,sans-Serif" font-size="10.00" fill="#555555">beschreibung</text>
<polygon fill="none" stroke="#866440" stroke-width="2" points="1224.56,-841.54 1224.56,-966.54 1439.56,-966.54 1439.56,-841.54 1224.56,-841.54"/>
</g>
<!-- bo.Vertrag&#45;&gt;com.Vertragskonditionen -->
<g id="edge18" class="edge">
<title>bo.Vertrag&#45;&gt;com.Vertragskonditionen</title>
<path fill="none" stroke="black" d="M1095.72,-440.01C1127.86,-460.43 1167.48,-489.3 1195.81,-522.29 1271.25,-610.14 1306,-742.79 1321.2,-826.35"/>
<polygon fill="black" stroke="black" points="1317.77,-827.05 1322.96,-836.28 1324.66,-825.83 1317.77,-827.05"/>
</g>
<!-- bo.Vertrag&#45;&gt;ZusatzAttribut -->
<g id="edge15" class="edge">
<title>bo.Vertrag&#45;&gt;ZusatzAttribut</title>
<path fill="none" stroke="black" d="M1018.95,-495.02C1006.9,-540.31 992.06,-590.44 980.63,-610.77 910.96,-734.67 829.58,-720.61 765.66,-847.58 758.81,-861.18 754.48,-877.08 751.75,-891.87"/>
<polygon fill="black" stroke="black" points="748.27,-891.47 750.11,-901.9 755.18,-892.6 748.27,-891.47"/>
</g>
<!-- com.Unterschrift&#45;&gt;ZusatzAttribut -->
<g id="edge29" class="edge">
<title>com.Unterschrift&#45;&gt;ZusatzAttribut</title>
<path fill="none" stroke="black" d="M864.05,-607.62C833.54,-670.75 791.98,-763.12 765.66,-847.58 761.25,-861.72 757.65,-877.4 754.84,-891.82"/>
<polygon fill="black" stroke="black" points="751.33,-891.59 752.94,-902.07 758.21,-892.88 751.33,-891.59"/>
</g>
<!-- com.Menge -->
<g id="node12" class="node">
<title>com.Menge</title>
<polygon fill="#e0a86c" stroke="transparent" points="479.19,-11.55 479.19,-119.55 559.19,-119.55 559.19,-11.55 479.19,-11.55"/>
<text text-anchor="start" x="485.19" y="-100.15" font-family="Helvetica,sans-Serif" font-weight="bold" font-size="18.00">Menge</text>
<polygon fill="#efd3b5" stroke="transparent" points="481.19,-70.55 481.19,-89.55 557.19,-89.55 557.19,-70.55 481.19,-70.55"/>
<text text-anchor="start" x="485.19" y="-77.55" font-family="Helvetica,sans-Serif" font-size="10.00" fill="#555555">_id</text>
<polygon fill="#efd3b5" stroke="transparent" points="481.19,-51.55 481.19,-70.55 557.19,-70.55 557.19,-51.55 481.19,-51.55"/>
<text text-anchor="start" x="485.19" y="-58.55" font-family="Helvetica,sans-Serif" font-size="10.00" fill="#555555">_typ</text>
<polygon fill="#efd3b5" stroke="transparent" points="481.19,-32.55 481.19,-51.55 557.19,-51.55 557.19,-32.55 481.19,-32.55"/>
<text text-anchor="start" x="485.19" y="-39.55" font-family="Helvetica,sans-Serif" font-size="10.00" fill="#555555">_version</text>
<polygon fill="#efd3b5" stroke="transparent" points="481.19,-13.55 481.19,-32.55 557.19,-32.55 557.19,-13.55 481.19,-13.55"/>
<text text-anchor="start" x="485.19" y="-20.55" font-family="Helvetica,sans-Serif" font-size="10.00" fill="#555555">wert</text>
<polygon fill="none" stroke="#866440" stroke-width="2" points="480.19,-12.55 480.19,-118.55 558.19,-118.55 558.19,-12.55 480.19,-12.55"/>
</g>
<!-- enum.Mengeneinheit -->
<g id="node14" class="node">
<title>enum.Mengeneinheit</title>
<polygon fill="#d1c358" stroke="transparent" points="619.14,-11.66 619.14,-43.66 782.14,-43.66 782.14,-11.66 619.14,-11.66"/>
<text text-anchor="start" x="625.64" y="-24.26" font-family="Helvetica,sans-Serif" font-weight="bold" font-size="18.00">Mengeneinheit</text>
<polygon fill="none" stroke="#7d7534" stroke-width="2" points="620.14,-12.66 620.14,-42.66 781.14,-42.66 781.14,-12.66 620.14,-12.66"/>
</g>
<!-- com.Menge&#45;&gt;enum.Mengeneinheit -->
<g id="edge28" class="edge">
<title>com.Menge&#45;&gt;enum.Mengeneinheit</title>
<path fill="none" stroke="black" d="M567.34,-55.5C577.84,-53.3 589.32,-50.91 601,-48.47"/>
<polygon fill="black" stroke="black" points="601.77,-51.88 610.84,-46.41 600.34,-45.03 601.77,-51.88"/>
</g>
<!-- com.Menge&#45;&gt;ZusatzAttribut -->
<g id="edge27" class="edge">
<title>com.Menge&#45;&gt;ZusatzAttribut</title>
<path fill="none" stroke="black" d="M536.85,-123.74C586.45,-287.25 723.64,-740 726.91,-756.07 736.15,-801.56 741.37,-854.25 744.17,-891.78"/>
<polygon fill="black" stroke="black" points="740.69,-892.21 744.9,-901.94 747.67,-891.71 740.69,-892.21"/>
</g>
<!-- com.Vertragsteil&#45;&gt;com.Menge -->
<g id="edge33" class="edge">
<title>com.Vertragsteil&#45;&gt;com.Menge</title>
<path fill="none" stroke="black" d="M574.86,-105.46C574.71,-105.35 574.55,-105.24 574.4,-105.12"/>
<polygon fill="black" stroke="black" points="577.6,-103.12 567.44,-100.14 573.52,-108.81 577.6,-103.12"/>
</g>
<!-- com.Vertragsteil&#45;&gt;ZusatzAttribut -->
<g id="edge32" class="edge">
<title>com.Vertragsteil&#45;&gt;ZusatzAttribut</title>
<path fill="none" stroke="black" d="M659.36,-235.69C674.93,-349.54 704.49,-569.04 726.91,-756.07 732.43,-802.16 738.1,-854.78 742.02,-892.12"/>
<polygon fill="black" stroke="black" points="738.55,-892.65 743.07,-902.23 745.52,-891.92 738.55,-892.65"/>
</g>
<!-- enum.Kontaktart -->
<g id="node16" class="node">
<title>enum.Kontaktart</title>
<polygon fill="#d1c358" stroke="transparent" points="382.22,-1274.04 382.22,-1306.04 503.22,-1306.04 503.22,-1274.04 382.22,-1274.04"/>
<text text-anchor="start" x="388.72" y="-1286.64" font-family="Helvetica,sans-Serif" font-weight="bold" font-size="18.00">Kontaktart</text>
<polygon fill="none" stroke="#7d7534" stroke-width="2" points="383.22,-1275.04 383.22,-1305.04 502.22,-1305.04 502.22,-1275.04 383.22,-1275.04"/>
</g>
<!-- com.Kontaktweg&#45;&gt;enum.Kontaktart -->
<g id="edge26" class="edge">
<title>com.Kontaktweg&#45;&gt;enum.Kontaktart</title>
<path fill="none" stroke="black" d="M351.21,-1328.16C362.68,-1323.39 374.29,-1318.55 385.22,-1314"/>
<polygon fill="black" stroke="black" points="386.74,-1317.16 394.62,-1310.08 384.05,-1310.69 386.74,-1317.16"/>
</g>
<!-- com.Kontaktweg&#45;&gt;ZusatzAttribut -->
<g id="edge25" class="edge">
<title>com.Kontaktweg&#45;&gt;ZusatzAttribut</title>
<path fill="none" stroke="black" d="M347.06,-1284.17C354.84,-1277.9 362.88,-1272.01 371.02,-1266.84 484.34,-1194.87 555.6,-1250.17 652.47,-1157.24 699.77,-1111.87 724.91,-1038.78 737.11,-990.39"/>
<polygon fill="black" stroke="black" points="740.56,-991 739.52,-980.45 733.76,-989.35 740.56,-991"/>
</g>
<!-- com.Zeitraum -->
<g id="node18" class="node">
<title>com.Zeitraum</title>
<polygon fill="#e0a86c" stroke="transparent" points="1385.76,-983.56 1385.76,-1167.56 1489.76,-1167.56 1489.76,-983.56 1385.76,-983.56"/>
<text text-anchor="start" x="1391.76" y="-1148.16" font-family="Helvetica,sans-Serif" font-weight="bold" font-size="18.00">Zeitraum</text>
<polygon fill="#efd3b5" stroke="transparent" points="1387.76,-1118.56 1387.76,-1137.56 1487.76,-1137.56 1487.76,-1118.56 1387.76,-1118.56"/>
<text text-anchor="start" x="1391.76" y="-1125.56" font-family="Helvetica,sans-Serif" font-size="10.00" fill="#555555">_id</text>
<polygon fill="#efd3b5" stroke="transparent" points="1387.76,-1099.56 1387.76,-1118.56 1487.76,-1118.56 1487.76,-1099.56 1387.76,-1099.56"/>
<text text-anchor="start" x="1391.76" y="-1106.56" font-family="Helvetica,sans-Serif" font-size="10.00" fill="#555555">_typ</text>
<polygon fill="#efd3b5" stroke="transparent" points="1387.76,-1080.56 1387.76,-1099.56 1487.76,-1099.56 1487.76,-1080.56 1387.76,-1080.56"/>
<text text-anchor="start" x="1391.76" y="-1087.56" font-family="Helvetica,sans-Serif" font-size="10.00" fill="#555555">_version</text>
<polygon fill="#efd3b5" stroke="transparent" points="1387.76,-1061.56 1387.76,-1080.56 1487.76,-1080.56 1487.76,-1061.56 1387.76,-1061.56"/>
<text text-anchor="start" x="1391.76" y="-1068.56" font-family="Helvetica,sans-Serif" font-size="10.00" fill="#555555">dauer</text>
<polygon fill="#efd3b5" stroke="transparent" points="1387.76,-1042.56 1387.76,-1061.56 1487.76,-1061.56 1487.76,-1042.56 1387.76,-1042.56"/>
<text text-anchor="start" x="1391.76" y="-1049.56" font-family="Helvetica,sans-Serif" font-size="10.00" fill="#555555">enddatum</text>
<polygon fill="#efd3b5" stroke="transparent" points="1387.76,-1023.56 1387.76,-1042.56 1487.76,-1042.56 1487.76,-1023.56 1387.76,-1023.56"/>
<text text-anchor="start" x="1391.76" y="-1030.56" font-family="Helvetica,sans-Serif" font-size="10.00" fill="#555555">enduhrzeit</text>
<polygon fill="#efd3b5" stroke="transparent" points="1387.76,-1004.56 1387.76,-1023.56 1487.76,-1023.56 1487.76,-1004.56 1387.76,-1004.56"/>
<text text-anchor="start" x="1391.76" y="-1011.56" font-family="Helvetica,sans-Serif" font-size="10.00" fill="#555555">startdatum</text>
<polygon fill="#efd3b5" stroke="transparent" points="1387.76,-985.56 1387.76,-1004.56 1487.76,-1004.56 1487.76,-985.56 1387.76,-985.56"/>
<text text-anchor="start" x="1391.76" y="-992.56" font-family="Helvetica,sans-Serif" font-size="10.00" fill="#555555">startuhrzeit</text>
<polygon fill="none" stroke="#866440" stroke-width="2" points="1386.76,-984.56 1386.76,-1166.56 1488.76,-1166.56 1488.76,-984.56 1386.76,-984.56"/>
</g>
<!-- com.Vertragskonditionen&#45;&gt;com.Zeitraum -->
<g id="edge31" class="edge">
<title>com.Vertragskonditionen&#45;&gt;com.Zeitraum</title>
<path fill="none" stroke="black" d="M1373.83,-971.83C1373.93,-971.99 1374.03,-972.14 1374.13,-972.3"/>
<polygon fill="black" stroke="black" points="1370.32,-972.79 1378.54,-979.47 1376.28,-969.12 1370.32,-972.79"/>
</g>
<!-- com.Vertragskonditionen&#45;&gt;ZusatzAttribut -->
<g id="edge30" class="edge">
<title>com.Vertragskonditionen&#45;&gt;ZusatzAttribut</title>
<path fill="none" stroke="black" d="M1215.43,-911.46C1106.89,-918.38 946.95,-928.56 844.91,-935.06"/>
<polygon fill="black" stroke="black" points="844.67,-931.56 834.91,-935.69 845.11,-938.55 844.67,-931.56"/>
</g>
<!-- com.Zeitraum&#45;&gt;ZusatzAttribut -->
<g id="edge34" class="edge">
<title>com.Zeitraum&#45;&gt;ZusatzAttribut</title>
<path fill="none" stroke="black" d="M1377.68,-1063.88C1258.29,-1040.67 990.23,-988.55 845.02,-960.32"/>
<polygon fill="black" stroke="black" points="845.27,-956.81 834.78,-958.33 843.93,-963.68 845.27,-956.81"/>
</g>
<!-- com.Adresse&#45;&gt;ZusatzAttribut -->
<g id="edge23" class="edge">
<title>com.Adresse&#45;&gt;ZusatzAttribut</title>
<path fill="none" stroke="black" d="M649.44,-997.68C656.29,-993.72 663.39,-989.62 670.49,-985.52"/>
<polygon fill="black" stroke="black" points="672.56,-988.36 679.47,-980.33 669.06,-982.3 672.56,-988.36"/>
</g>
<!-- enum.Landescode -->
<g id="node22" class="node">
<title>enum.Landescode</title>
<polygon fill="#d1c358" stroke="transparent" points="776.86,-854.78 776.86,-886.78 907.86,-886.78 907.86,-854.78 776.86,-854.78"/>
<text text-anchor="start" x="783.36" y="-867.38" font-family="Helvetica,sans-Serif" font-weight="bold" font-size="18.00">Landescode</text>
<polygon fill="none" stroke="#7d7534" stroke-width="2" points="777.86,-855.78 777.86,-885.78 906.86,-885.78 906.86,-855.78 777.86,-855.78"/>
</g>
<!-- com.Adresse&#45;&gt;enum.Landescode -->
<g id="edge24" class="edge">
<title>com.Adresse&#45;&gt;enum.Landescode</title>
<path fill="none" stroke="black" d="M648.52,-904.85C651.02,-902.78 653.64,-900.86 656.38,-899.08 659.67,-896.95 723.02,-897.96 726.91,-897.47 737.38,-896.16 748.29,-894.3 759.04,-892.16"/>
<polygon fill="black" stroke="black" points="759.77,-895.58 768.85,-890.13 758.35,-888.73 759.77,-895.58"/>
</g>
<!-- com.Zustaendigkeit&#45;&gt;ZusatzAttribut -->
<g id="edge35" class="edge">
<title>com.Zustaendigkeit&#45;&gt;ZusatzAttribut</title>
<path fill="none" stroke="black" d="M700.85,-894.38C701.01,-894.54 701.17,-894.7 701.33,-894.87"/>
<polygon fill="black" stroke="black" points="698.95,-897.44 708.47,-902.11 703.94,-892.53 698.95,-897.44"/>
</g>
<!-- enum.Themengebiet -->
<g id="node23" class="node">
<title>enum.Themengebiet</title>
<polygon fill="#d1c358" stroke="transparent" points="753.86,-1015.78 753.86,-1047.78 910.86,-1047.78 910.86,-1015.78 753.86,-1015.78"/>
<text text-anchor="start" x="760.36" y="-1028.38" font-family="Helvetica,sans-Serif" font-weight="bold" font-size="18.00">Themengebiet</text>
<polygon fill="none" stroke="#7d7534" stroke-width="2" points="754.86,-1016.78 754.86,-1046.78 909.86,-1046.78 909.86,-1016.78 754.86,-1016.78"/>
</g>
<!-- com.Zustaendigkeit&#45;&gt;enum.Themengebiet -->
<g id="edge36" class="edge">
<title>com.Zustaendigkeit&#45;&gt;enum.Themengebiet</title>
<path fill="none" stroke="black" d="M651.32,-894.58C651.74,-897.03 652.13,-899.45 652.47,-901.84 653.77,-910.83 650.7,-976.4 656.38,-983.48 675.69,-1007.59 705.81,-1020.34 735.71,-1026.88"/>
<polygon fill="black" stroke="black" points="735.33,-1030.38 745.82,-1028.87 736.68,-1023.51 735.33,-1030.38"/>
</g>
</g>
</svg>
