<?xml version="1.0" encoding="UTF-8" standalone="no"?>
<!DOCTYPE svg PUBLIC "-//W3C//DTD SVG 1.1//EN"
 "http://www.w3.org/Graphics/SVG/1.1/DTD/svg11.dtd">
<!-- Generated by graphviz version 2.43.0 (0)
 -->
<!-- Title: BO4E Pages: 1 -->
<svg width="751pt" height="396pt"
 viewBox="0.00 0.00 751.00 396.00" xmlns="http://www.w3.org/2000/svg" xmlns:xlink="http://www.w3.org/1999/xlink">
<g id="graph0" class="graph" transform="scale(1 1) rotate(0) translate(4 392)">
<title>BO4E</title>
<polygon fill="white" stroke="transparent" points="-4,4 -4,-392 747,-392 747,4 -4,4"/>
<!-- bo.Geschaeftspartner -->
<g id="node1" class="node">
<title>bo.Geschaeftspartner</title>
<polygon fill="#b6d7a8" stroke="transparent" points="8,-54.5 8,-333.5 234,-333.5 234,-54.5 8,-54.5"/>
<text text-anchor="start" x="27.5" y="-313.6" font-family="Helvetica,sans-Serif" font-weight="bold" font-size="18.00">Geschaeftspartner</text>
<polygon fill="#dbebd4" stroke="transparent" points="10,-284 10,-303 232,-303 232,-284 10,-284"/>
<text text-anchor="start" x="14" y="-291" font-family="Helvetica,sans-Serif" font-size="10.00" fill="#555555">_id : str [0..1]</text>
<polygon fill="#dbebd4" stroke="transparent" points="10,-265 10,-284 232,-284 232,-265 10,-265"/>
<text text-anchor="start" x="14" y="-272" font-family="Helvetica,sans-Serif" font-size="10.00" fill="#555555">_typ : Literal[&quot;GESCHAEFTSPARTNER&quot;] [0..1]</text>
<polygon fill="#dbebd4" stroke="transparent" points="10,-246 10,-265 232,-265 232,-246 10,-246"/>
<text text-anchor="start" x="14" y="-253" font-family="Helvetica,sans-Serif" font-size="10.00" fill="#555555">_version : str [0..1]</text>
<polygon fill="#dbebd4" stroke="transparent" points="10,-227 10,-246 232,-246 232,-227 10,-227"/>
<text text-anchor="start" x="14" y="-234" font-family="Helvetica,sans-Serif" font-size="10.00" fill="#555555">amtsgericht : str [0..1]</text>
<polygon fill="#dbebd4" stroke="transparent" points="10,-208 10,-227 232,-227 232,-208 10,-208"/>
<text text-anchor="start" x="14" y="-215" font-family="Helvetica,sans-Serif" font-size="10.00" fill="#555555">glaeubigerId : str [0..1]</text>
<polygon fill="#dbebd4" stroke="transparent" points="10,-189 10,-208 232,-208 232,-189 10,-189"/>
<text text-anchor="start" x="14" y="-196" font-family="Helvetica,sans-Serif" font-size="10.00" fill="#555555">handelsregisternummer : str [0..1]</text>
<polygon fill="#dbebd4" stroke="transparent" points="10,-170 10,-189 232,-189 232,-170 10,-170"/>
<text text-anchor="start" x="14" y="-177" font-family="Helvetica,sans-Serif" font-size="10.00" fill="#555555">individuelleAnrede : str [0..1]</text>
<polygon fill="#dbebd4" stroke="transparent" points="10,-151 10,-170 232,-170 232,-151 10,-151"/>
<text text-anchor="start" x="14" y="-158" font-family="Helvetica,sans-Serif" font-size="10.00" fill="#555555">nachname : str [0..1]</text>
<polygon fill="#dbebd4" stroke="transparent" points="10,-132 10,-151 232,-151 232,-132 10,-132"/>
<text text-anchor="start" x="14" y="-139" font-family="Helvetica,sans-Serif" font-size="10.00" fill="#555555">organisationsname : str [0..1]</text>
<polygon fill="#dbebd4" stroke="transparent" points="10,-113 10,-132 232,-132 232,-113 10,-113"/>
<text text-anchor="start" x="14" y="-120" font-family="Helvetica,sans-Serif" font-size="10.00" fill="#555555">umsatzsteuerId : str [0..1]</text>
<polygon fill="#dbebd4" stroke="transparent" points="10,-94 10,-113 232,-113 232,-94 10,-94"/>
<text text-anchor="start" x="14" y="-101" font-family="Helvetica,sans-Serif" font-size="10.00" fill="#555555">vorname : str [0..1]</text>
<polygon fill="#dbebd4" stroke="transparent" points="10,-75 10,-94 232,-94 232,-75 10,-75"/>
<text text-anchor="start" x="14" y="-82" font-family="Helvetica,sans-Serif" font-size="10.00" fill="#555555">website : str [0..1]</text>
<polygon fill="#dbebd4" stroke="transparent" points="10,-56 10,-75 232,-75 232,-56 10,-56"/>
<text text-anchor="start" x="14" y="-63" font-family="Helvetica,sans-Serif" font-size="10.00" fill="#555555">zusatzAttribute : list[ZusatzAttribut] [0..*]</text>
<polygon fill="none" stroke="#6d8164" stroke-width="2" points="9,-55.5 9,-332.5 233,-332.5 233,-55.5 9,-55.5"/>
</g>
<!-- bo.Person -->
<g id="node2" class="node">
<title>bo.Person</title>
<polygon fill="#b6d7a8" stroke="transparent" points="572,-352 572,-384 654,-384 654,-352 572,-352"/>
<text text-anchor="start" x="578" y="-364.6" font-family="Helvetica,sans-Serif" font-weight="bold" font-size="18.00">Person</text>
<polygon fill="none" stroke="#6d8164" stroke-width="2" points="573,-353 573,-383 653,-383 653,-353 573,-353"/>
</g>
<!-- bo.Geschaeftspartner&#45;&gt;bo.Person -->
<g id="edge1" class="edge">
<title>bo.Geschaeftspartner&#45;&gt;bo.Person</title>
<path fill="none" stroke="black" d="M242.12,-303.68C248,-307.08 253.97,-310.21 260,-313 356.18,-357.49 481.28,-367.07 553.51,-368.53"/>
<polygon fill="black" stroke="black" points="553.72,-372.04 563.77,-368.69 553.83,-365.04 553.72,-372.04"/>
<text text-anchor="middle" x="362.5" y="-366.8" font-family="Helvetica,sans-Serif" font-size="14.00">ansprechpartner [0..*]</text>
</g>
<!-- com.Adresse -->
<g id="node3" class="node">
<title>com.Adresse</title>
<polygon fill="#e0a86c" stroke="transparent" points="566,-294 566,-326 660,-326 660,-294 566,-294"/>
<text text-anchor="start" x="572" y="-306.6" font-family="Helvetica,sans-Serif" font-weight="bold" font-size="18.00">Adresse</text>
<polygon fill="none" stroke="#866440" stroke-width="2" points="567,-295 567,-325 659,-325 659,-295 567,-295"/>
</g>
<!-- bo.Geschaeftspartner&#45;&gt;com.Adresse -->
<g id="edge2" class="edge">
<title>bo.Geschaeftspartner&#45;&gt;com.Adresse</title>
<path fill="none" stroke="black" d="M242.11,-249.26C248.11,-251.34 254.09,-253.27 260,-255 358.14,-283.82 476.37,-298.35 547.78,-305.04"/>
<polygon fill="black" stroke="black" points="547.7,-308.54 557.97,-305.97 548.33,-301.57 547.7,-308.54"/>
<text text-anchor="middle" x="362.5" y="-297.8" font-family="Helvetica,sans-Serif" font-size="14.00">adresse [0..1]</text>
</g>
<!-- com.Kontaktweg -->
<g id="node4" class="node">
<title>com.Kontaktweg</title>
<polygon fill="#e0a86c" stroke="transparent" points="546.5,-236 546.5,-268 679.5,-268 679.5,-236 546.5,-236"/>
<text text-anchor="start" x="553" y="-248.6" font-family="Helvetica,sans-Serif" font-weight="bold" font-size="18.00">Kontaktweg</text>
<polygon fill="none" stroke="#866440" stroke-width="2" points="547.5,-237 547.5,-267 678.5,-267 678.5,-237 547.5,-237"/>
</g>
<!-- bo.Geschaeftspartner&#45;&gt;com.Kontaktweg -->
<g id="edge3" class="edge">
<title>bo.Geschaeftspartner&#45;&gt;com.Kontaktweg</title>
<path fill="none" stroke="black" d="M242.02,-210.72C248.1,-211.51 254.12,-212.27 260,-213 351.6,-224.38 456.81,-235.82 528.17,-243.34"/>
<polygon fill="black" stroke="black" points="528.14,-246.86 538.45,-244.42 528.87,-239.9 528.14,-246.86"/>
<text text-anchor="middle" x="362.5" y="-239.8" font-family="Helvetica,sans-Serif" font-size="14.00">kontaktwege [0..*]</text>
</g>
<!-- enum.Anrede -->
<g id="node5" class="node">
<title>enum.Anrede</title>
<polygon fill="#d1c358" stroke="transparent" points="570.5,-178 570.5,-210 655.5,-210 655.5,-178 570.5,-178"/>
<text text-anchor="start" x="577" y="-190.6" font-family="Helvetica,sans-Serif" font-weight="bold" font-size="18.00">Anrede</text>
<polygon fill="none" stroke="#7d7534" stroke-width="2" points="571.5,-179 571.5,-209 654.5,-209 654.5,-179 571.5,-179"/>
</g>
<!-- bo.Geschaeftspartner&#45;&gt;enum.Anrede -->
<g id="edge4" class="edge">
<title>bo.Geschaeftspartner&#45;&gt;enum.Anrede</title>
<path fill="none" stroke="black" d="M242.18,-194C340.42,-194 475.18,-194 551.96,-194"/>
<polygon fill="black" stroke="black" points="552.4,-197.5 562.4,-194 552.4,-190.5 552.4,-197.5"/>
<text text-anchor="middle" x="362.5" y="-197.8" font-family="Helvetica,sans-Serif" font-size="14.00">anrede [0..1]</text>
</g>
<!-- enum.Geschaeftspartnerrolle -->
<g id="node6" class="node">
<title>enum.Geschaeftspartnerrolle</title>
<polygon fill="#d1c358" stroke="transparent" points="491,-120 491,-152 735,-152 735,-120 491,-120"/>
<text text-anchor="start" x="497" y="-132.6" font-family="Helvetica,sans-Serif" font-weight="bold" font-size="18.00">Geschaeftspartnerrolle</text>
<polygon fill="none" stroke="#7d7534" stroke-width="2" points="492,-121 492,-151 734,-151 734,-121 492,-121"/>
</g>
<!-- bo.Geschaeftspartner&#45;&gt;enum.Geschaeftspartnerrolle -->
<g id="edge5" class="edge">
<title>bo.Geschaeftspartner&#45;&gt;enum.Geschaeftspartnerrolle</title>
<path fill="none" stroke="black" d="M242.02,-177.28C248.1,-176.49 254.12,-175.73 260,-175 329.94,-166.31 407.81,-157.59 472.49,-150.6"/>
<polygon fill="black" stroke="black" points="473.19,-154.04 482.76,-149.49 472.44,-147.08 473.19,-154.04"/>
<text text-anchor="middle" x="362.5" y="-178.8" font-family="Helvetica,sans-Serif" font-size="14.00">geschaeftspartnerrollen [0..*]</text>
</g>
<!-- enum.Organisationstyp -->
<g id="node7" class="node">
<title>enum.Organisationstyp</title>
<polygon fill="#d1c358" stroke="transparent" points="520.5,-62 520.5,-94 705.5,-94 705.5,-62 520.5,-62"/>
<text text-anchor="start" x="527" y="-74.6" font-family="Helvetica,sans-Serif" font-weight="bold" font-size="18.00">Organisationstyp</text>
<polygon fill="none" stroke="#7d7534" stroke-width="2" points="521.5,-63 521.5,-93 704.5,-93 704.5,-63 521.5,-63"/>
</g>
<!-- bo.Geschaeftspartner&#45;&gt;enum.Organisationstyp -->
<g id="edge6" class="edge">
<title>bo.Geschaeftspartner&#45;&gt;enum.Organisationstyp</title>
<path fill="none" stroke="black" d="M242.08,-137.8C248.08,-135.7 254.08,-133.75 260,-132 339.26,-108.59 431.72,-94.9 501.99,-87.17"/>
<polygon fill="black" stroke="black" points="502.62,-90.62 512.19,-86.07 501.87,-83.66 502.62,-90.62"/>
<text text-anchor="middle" x="362.5" y="-135.8" font-family="Helvetica,sans-Serif" font-size="14.00">organisationstyp [0..1]</text>
</g>
<!-- enum.Titel -->
<g id="node8" class="node">
<title>enum.Titel</title>
<polygon fill="#d1c358" stroke="transparent" points="584.5,-4 584.5,-36 641.5,-36 641.5,-4 584.5,-4"/>
<text text-anchor="start" x="591" y="-16.6" font-family="Helvetica,sans-Serif" font-weight="bold" font-size="18.00">Titel</text>
<polygon fill="none" stroke="#7d7534" stroke-width="2" points="585.5,-5 585.5,-35 640.5,-35 640.5,-5 585.5,-5"/>
</g>
<!-- bo.Geschaeftspartner&#45;&gt;enum.Titel -->
<g id="edge7" class="edge">
<title>bo.Geschaeftspartner&#45;&gt;enum.Titel</title>
<path fill="none" stroke="black" d="M242.02,-82.43C247.93,-78.99 253.93,-75.82 260,-73 361.97,-25.66 496.76,-18.84 566.24,-18.85"/>
<polygon fill="black" stroke="black" points="566.39,-22.35 576.41,-18.9 566.43,-15.35 566.39,-22.35"/>
<text text-anchor="middle" x="362.5" y="-76.8" font-family="Helvetica,sans-Serif" font-size="14.00">titel [0..1]</text>
</g>
</g>
</svg>
